<svg width="24" height="24" viewBox="0 0 24 24" fill="none" xmlns="http://www.w3.org/2000/svg">
<path d="M15.75 2C19.2013 2 22 4.79875 22 8.25V15.75C22 19.2013 19.2013 22 15.75 22H8.25C4.79875 22 2 19.2013 2 15.75V8.25C2 4.79875 4.79875 2 8.25 2H15.75ZM8.25 3.875C5.8375 3.875 3.875 5.8375 3.875 8.25V15.75C3.875 18.1625 5.8375 20.125 8.25 20.125H15.75C18.1625 20.125 20.125 18.1625 20.125 15.75V8.25C20.125 5.8375 18.1625 3.875 15.75 3.875H8.25ZM12 7.2002C14.6507 7.2002 16.7997 9.34929 16.7998 12C16.7998 14.6508 14.6508 16.7998 12 16.7998C9.34929 16.7997 7.2002 14.6507 7.2002 12C7.2003 9.34935 9.34935 7.2003 12 7.2002ZM12 9C10.3466 9.00011 9.00011 10.3454 9 12C9 13.6535 10.3465 14.9999 12 15C13.6536 15 15 13.6536 15 12C14.9999 10.3453 13.6535 9 12 9ZM17.3994 6C17.7307 6 17.9998 6.26842 18 6.59961C18 6.93098 17.7308 7.2002 17.3994 7.2002C17.0682 7.19998 16.7998 6.93085 16.7998 6.59961C16.8 6.26855 17.0684 6.00021 17.3994 6Z" fill="url(#paint0_linear_1_11702)"/>
<defs>
<linearGradient id="paint0_linear_1_11702" x1="4.92912" y1="19.0709" x2="19.0709" y2="4.92912" gradientUnits="userSpaceOnUse">
<stop stop-color="#FFC107"/>
<stop offset="0.507" stop-color="#F44336"/>
<stop offset="0.99" stop-color="#9C27B0"/>
</linearGradient>
</defs>
</svg>
