<svg width="32" height="32" viewBox="0 0 32 32" fill="none" xmlns="http://www.w3.org/2000/svg">
<path fill-rule="evenodd" clip-rule="evenodd" d="M7.33301 28C7.33301 26.1591 8.82539 24.6667 10.6663 24.6667C12.5073 24.6667 13.9997 26.1591 13.9997 28C13.9997 29.841 12.5073 31.3334 10.6663 31.3334C8.82539 31.3334 7.33301 29.841 7.33301 28ZM10.6663 26C9.56177 26 8.66634 26.8955 8.66634 28C8.66634 29.1046 9.56177 30 10.6663 30C11.7709 30 12.6663 29.1046 12.6663 28C12.6663 26.8955 11.7709 26 10.6663 26Z" fill="white"/>
<path fill-rule="evenodd" clip-rule="evenodd" d="M23.333 28C23.333 26.1591 24.8254 24.6667 26.6663 24.6667C28.5073 24.6667 29.9997 26.1591 29.9997 28C29.9997 29.841 28.5073 31.3334 26.6663 31.3334C24.8254 31.3334 23.333 29.841 23.333 28ZM26.6663 26C25.5618 26 24.6663 26.8955 24.6663 28C24.6663 29.1046 25.5618 30 26.6663 30C27.7709 30 28.6663 29.1046 28.6663 28C28.6663 26.8955 27.7709 26 26.6663 26Z" fill="white"/>
<path fill-rule="evenodd" clip-rule="evenodd" d="M1.33366 0.666687C0.965469 0.666687 0.666992 0.965164 0.666992 1.33335C0.666992 1.70154 0.965469 2.00002 1.33366 2.00002H6.10767C7.11743 7.72198 8.13809 13.4191 8.99941 19.1612C9.24417 20.7929 10.6459 22 12.2959 22H25.8132C27.4022 22 28.7702 20.8785 29.0818 19.3204L31.0008 9.72559C31.2483 8.488 30.3017 7.33335 29.0396 7.33335H9.54761C9.14367 7.33335 8.77096 7.45204 8.45947 7.65459L7.32351 1.2175C7.2673 0.898925 6.99049 0.666687 6.66699 0.666687H1.33366ZM8.88832 9.43225C8.82786 9.02918 9.14003 8.66669 9.54761 8.66669H29.0396C29.4603 8.66669 29.7758 9.05157 29.6933 9.4641L27.7744 19.0589C27.5874 19.9938 26.7666 20.6667 25.8132 20.6667H12.2959C11.3059 20.6667 10.4648 19.9424 10.318 18.9634L8.88832 9.43225Z" fill="white"/>
</svg>
